<?xml version="1.0" encoding="UTF-8"?>
<svg id="Layer_2" xmlns="http://www.w3.org/2000/svg" viewBox="0 0 290.17 393.01">
  <defs>
    <style>
      .cls-1 {
        letter-spacing: -.03em;
      }

      .cls-2 {
        letter-spacing: -.07em;
      }

      .cls-3 {
        letter-spacing: .05em;
      }

      .cls-4 {
        fill: #8a8c8e;
        font-family: Inter-Regular, Inter;
        font-size: 48px;
      }

      .cls-5 {
        fill: #81b7bd;
      }

      .cls-6 {
        letter-spacing: 0em;
      }

      .cls-7 {
        fill: #0e2528;
      }
    </style>
  </defs>
  <g id="Layer_1-2" data-name="Layer_1">
    <g>
      <path class="cls-5" d="M194.03,91.59c-.47,3.47-3.41,6.15-7.01,6.15-3.92,0-7.1-3.18-7.1-7.1,0-1.66.59-3.16,1.54-4.37-11.87-4.2-24.64-6.51-37.96-6.51-19.49,0-37.83,4.91-53.87,13.55,2.64,2.16,4.33,5.45,4.33,9.13,0,6.52-5.28,11.8-11.8,11.8-5.29,0-9.77-3.49-11.27-8.29-25.13,20.86-41.14,52.34-41.14,87.56,0,50.61,33.07,93.49,78.77,108.25,1.18-27.32,2.48-56.61,2.48-56.61,0,0,.48-5.3-2.21-9.5-10.76-2.85-18.86-15.12-18.86-29.83,0-16.82,10.58-30.46,23.63-30.46s23.63,13.64,23.63,30.46c0,14.87-8.27,27.25-19.21,29.91-1.53,2.64-2.22,6.86-1.84,12.44.31,4.57,1.53,31.36,2.65,56.37,7.96,1.76,16.22,2.72,24.71,2.72s17.51-1.05,25.81-2.98c1.17-26.73,2.22-50.48,2.22-50.48,0,0,.86-9.41-5.27-14.43-.42-.22-.85-.41-1.31-.53-4.74-1.28-12.95-5.65-12.77-17.88,0-.1,0-.21,0-.32,0-.49,0-.99,0-1.51.18-10.22,2.55-43.78,2.55-43.78h4.38l-.72,36.47s-.01.09-.01.14c0,.03,0,.06,0,.09v.15s0,.02.02.04c.14,1.79,1.62,3.2,3.45,3.2s3.31-1.41,3.45-3.2c0-.01.02-.02.02-.03,1.1-34.66,1.26-36.87,1.26-36.87h4.97v35.28s0,.07,0,.11c0,1.73,1.4,3.13,3.13,3.13,1.17,0,2.18-.65,2.71-1.6.05-.08.09-.15.13-.23.03-.06.05-.11.07-.17.05-.14.09-.27.13-.4.01-.06.03-.13.04-.19.03-.19.04-.35.05-.46,0-.03.01-.05.01-.08,0-.03-.01-.06-.01-.09l.65-35.3h4.2l.91,32.78s0,.02,0,.03c0,.01,0,.03,0,.04.02,1.75,1.44,3.15,3.19,3.15s3.05-1.3,3.17-2.95c0,0,.02-.01.02-.02v-.16s0-.05,0-.07c0-.03,0-.06,0-.09-.35-21.17,0-32.71,0-32.71h3.83s1.95,21.01,2.85,35.8c0,.02,0,.04,0,.07.06,1.03.12,2.04.17,3,.12,1.94.23,3.62.25,4.92.01.53,0,1.03,0,1.52,0,.1,0,.21,0,.3.18,12.22-8.03,16.6-12.77,17.88-.46.12-.89.31-1.3.53-6.13,5.02-5.27,14.43-5.27,14.43,0,0,.56,12.59,1.31,29.74h0c.25,5.47.53,11.48.81,17.75,45-15.16,77.41-57.68,77.41-107.79,0-44.67-25.76-83.31-63.23-101.92ZM61.97,166.56c-6.52,0-11.8-5.29-11.8-11.8s5.28-11.8,11.8-11.8,11.8,5.28,11.8,11.8-5.28,11.8-11.8,11.8ZM129.78,105.28c1.93,0,3.49,1.57,3.49,3.49s-1.56,3.49-3.49,3.49-3.49-1.56-3.49-3.49,1.57-3.49,3.49-3.49ZM129.78,171.46c-2.62,0-4.74-2.12-4.74-4.74s2.12-4.74,4.74-4.74,4.74,2.13,4.74,4.74-2.13,4.74-4.74,4.74ZM165.93,150.97c-4.42,0-8.01-3.59-8.01-8.01s3.59-8.01,8.01-8.01,8.01,3.59,8.01,8.01-3.58,8.01-8.01,8.01ZM216.76,150.97c-5.13,0-9.29-4.16-9.29-9.3s4.16-9.3,9.29-9.3,9.3,4.16,9.3,9.3-4.16,9.3-9.3,9.3Z"/>
      <path class="cls-5" d="M53.17,79.76c0-7,5.68-12.68,12.68-12.68s12.68,5.68,12.68,12.68-5.68,12.68-12.68,12.68-12.68-5.68-12.68-12.68Z"/>
      <path class="cls-5" d="M147.64,46.28c0,2.1-1.7,3.81-3.8,3.81s-3.81-1.7-3.81-3.81,1.7-3.8,3.81-3.8,3.8,1.7,3.8,3.8Z"/>
      <path class="cls-7" d="M129.2,13.04c0,5.06-4.1,9.15-9.15,9.15s-9.15-4.1-9.15-9.15,4.1-9.15,9.15-9.15,9.15,4.1,9.15,9.15Z"/>
      <circle class="cls-5" cx="196.77" cy="11.1" r="11.1"/>
      <path class="cls-7" d="M206.48,63.97c0,3.64-2.96,6.59-6.6,6.59s-6.6-2.95-6.6-6.59,2.96-6.6,6.6-6.6,6.6,2.95,6.6,6.6Z"/>
    </g>
    <text class="cls-4" transform="translate(0 377.67)"><tspan x="0" y="0">F</tspan><tspan class="cls-3" x="28.16" y="0">L</tspan><tspan class="cls-2" x="57.34" y="0">A</tspan><tspan class="cls-1" x="86.52" y="0">V</tspan><tspan class="cls-6" x="117.33" y="0">ORMAP</tspan></text>
  </g>
</svg>